<svg width="35" height="15" viewBox="0 0 35 15" fill="none" xmlns="http://www.w3.org/2000/svg">
<path d="M34.0877 7.22149C34.0877 7.56361 33.8598 7.79157 33.5177 7.79157L1.70997 7.79156C1.36785 7.79156 1.13989 7.56361 1.13989 7.22149C1.13989 6.87938 1.36785 6.65142 1.70997 6.65142L33.4609 6.65142C33.803 6.65142 34.0879 6.87938 34.0879 7.22149L34.0877 7.22149Z" fill="#AE0F0F"/>
<path d="M11.7426 0.552103C11.7426 0.723161 11.6285 0.894219 11.4578 1.00802L2.10876 7.22152L11.5146 13.3778C11.7994 13.5488 11.8567 13.8909 11.6856 14.1758C11.5146 14.4606 11.1725 14.5179 10.8876 14.3468L-0.000488195 7.22152L10.8867 0.0962125C11.1715 -0.0748461 11.5137 -0.0179442 11.6847 0.267272C11.742 0.381072 11.742 0.438328 11.742 0.552128L11.7426 0.552103Z" fill="#AE0F0F"/>
</svg>
