<svg width="35" height="15" viewBox="0 0 35 15" fill="none" xmlns="http://www.w3.org/2000/svg">
<path d="M0.911274 7.2215C0.911274 6.87938 1.13923 6.65143 1.48135 6.65143L33.2891 6.65143C33.6312 6.65143 33.8591 6.87939 33.8591 7.2215C33.8591 7.56362 33.6312 7.79157 33.2891 7.79157L1.53814 7.79157C1.19603 7.79157 0.911171 7.56362 0.911171 7.2215L0.911274 7.2215Z" fill="white"/>
<path d="M23.2564 13.8909C23.2564 13.7198 23.3706 13.5488 23.5413 13.435L32.8903 7.22148L23.4845 1.06524C23.1996 0.894182 23.1423 0.552065 23.3134 0.267216C23.4845 -0.0176425 23.8266 -0.0749017 24.1114 0.0961564L34.9995 7.22147L24.1123 14.3468C23.8275 14.5178 23.4854 14.4609 23.3143 14.1757C23.2571 14.0619 23.2571 14.0047 23.2571 13.8909L23.2564 13.8909Z" fill="white"/>
</svg>
