<svg width="16" height="16" viewBox="0 0 16 16" fill="none" xmlns="http://www.w3.org/2000/svg">
<path fill-rule="evenodd" clip-rule="evenodd" d="M12.5964 4.26767L10.6104 0.29639C10.5446 0.164617 10.4417 0.075458 10.3021 0.0289161C10.1623 -0.0176259 10.0266 -0.00798413 9.89497 0.0578419C9.83164 0.0895068 9.77688 0.132002 9.73057 0.185449C9.68414 0.238896 9.64986 0.29913 9.62748 0.366147C9.60509 0.433283 9.59641 0.502085 9.6014 0.572674C9.6064 0.643143 9.62474 0.710041 9.6564 0.773368L11.4038 4.26775H4.5963L6.34369 0.773368C6.40953 0.641595 6.41917 0.505894 6.37262 0.366153C6.32607 0.226524 6.23691 0.123677 6.10512 0.0578541C6.04191 0.0261893 5.975 0.00785962 5.90452 0.00285894C5.83393 -0.00214051 5.76512 0.00654892 5.69798 0.0289279C5.63095 0.0513066 5.57072 0.0855901 5.51726 0.132013C5.46381 0.178317 5.42131 0.233075 5.38964 0.296283L3.40369 4.26787H1.59952C0.533213 4.26787 0 4.80103 0 5.86724V5.86819C0 6.30993 0.156191 6.68679 0.468451 6.99914C0.780833 7.31137 1.15773 7.46755 1.59952 7.46755H14.4005C14.8423 7.46755 15.2192 7.31137 15.5315 6.99914C15.8438 6.68679 16 6.30993 16 5.86819V5.86724C16 4.80103 15.4668 4.26787 14.4005 4.26787L12.5964 4.26767ZM1.59932 8.53394C1.24873 8.53394 0.938842 8.40264 0.669676 8.14017L1.30825 13.6415C1.49075 15.2139 2.37361 16 3.95658 16H12.0432C13.6261 16 14.509 15.2139 14.6915 13.6415L15.3301 8.14017C15.0609 8.40264 14.751 8.53394 14.4003 8.53394H1.59932ZM5.33328 10.1338V14.4001C5.33328 14.5473 5.28126 14.673 5.17709 14.7772C5.07292 14.8813 4.94721 14.9333 4.79995 14.9333C4.65268 14.9333 4.52697 14.8813 4.4228 14.7772C4.31863 14.673 4.26661 14.5473 4.26661 14.4001V10.1338C4.26661 9.98654 4.31863 9.86084 4.4228 9.75668C4.52697 9.65253 4.65268 9.60051 4.79995 9.60051C4.94721 9.60051 5.07292 9.65253 5.17709 9.75668C5.28126 9.86084 5.33328 9.98654 5.33328 10.1338ZM8.3771 9.75668C8.48127 9.86084 8.53329 9.98654 8.53329 10.1338V14.4001C8.53329 14.5473 8.48127 14.673 8.3771 14.7772C8.27293 14.8813 8.14722 14.9333 7.99996 14.9333C7.8527 14.9333 7.72698 14.8813 7.62281 14.7772C7.51865 14.673 7.46662 14.5473 7.46662 14.4001V10.1338C7.46662 9.98654 7.51865 9.86084 7.62281 9.75668C7.72698 9.65253 7.8527 9.60051 7.99996 9.60051C8.14722 9.60051 8.27293 9.65253 8.3771 9.75668ZM11.7332 10.1338V14.4001C11.7332 14.5473 11.6811 14.673 11.577 14.7772C11.4728 14.8813 11.3471 14.9333 11.1998 14.9333C11.0526 14.9333 10.9268 14.8813 10.8227 14.7772C10.7185 14.673 10.6665 14.5473 10.6665 14.4001V10.1338C10.6665 9.98654 10.7185 9.86084 10.8227 9.75668C10.9268 9.65253 11.0526 9.60051 11.1998 9.60051C11.3471 9.60051 11.4728 9.65253 11.577 9.75668C11.6811 9.86084 11.7332 9.98654 11.7332 10.1338Z" fill="white"/>
</svg>
