<svg width="15" height="15" viewBox="0 0 15 15" fill="none" xmlns="http://www.w3.org/2000/svg">
<path d="M7.34521 14.3452C5.48868 14.3452 3.70819 13.6077 2.39541 12.295C1.0827 10.9822 0.345215 9.20173 0.345215 7.34522C0.345215 5.4887 1.0827 3.70819 2.39541 2.3954C3.70819 1.0827 5.4887 0.345215 7.34521 0.345215C9.20173 0.345215 10.9822 1.0827 12.295 2.3954C13.6077 3.70819 14.3452 5.4887 14.3452 7.34522C14.3452 8.57395 14.0218 9.78103 13.4074 10.8452C12.793 11.9093 11.9094 12.793 10.8453 13.4073C9.78111 14.0217 8.57403 14.3451 7.34529 14.3451L7.34521 14.3452ZM7.34521 1.2787C5.73627 1.2787 4.19325 1.91786 3.0554 3.05556C1.9177 4.19325 1.27854 5.73633 1.27854 7.34538C1.27854 8.95442 1.9177 10.4973 3.0554 11.6352C4.19309 12.7729 5.73617 13.4121 7.34521 13.4121C8.95426 13.4121 10.4972 12.7729 11.635 11.6352C12.7727 10.4975 13.4119 8.95442 13.4119 7.34538C13.4119 5.73633 12.7727 4.19341 11.635 3.05556C10.4973 1.91786 8.95426 1.2787 7.34521 1.2787Z" fill="#A5A5A5"/>
<path d="M7.12575 7.00004C5.00743 6.95317 2.91726 6.50506 0.96582 5.67933L1.34384 4.8254C1.41853 4.85811 8.88989 8.12483 12.6789 3.81738L13.3789 4.43343C11.643 6.41205 9.30509 7.00007 7.12564 7.00007L7.12575 7.00004Z" fill="#A5A5A5"/>
<path d="M2.47336 11.5871L1.8667 10.8777C2.142 10.6397 8.69862 5.13294 14.1306 8.5677L13.6312 9.35633C8.7827 6.2905 2.53397 11.5451 2.47344 11.587L2.47336 11.5871Z" fill="#A5A5A5"/>
<path d="M7.49466 14.1724L6.77133 13.5844C12.1611 6.97194 6.79925 1.37201 6.56592 1.13868L7.23319 0.485352C7.29392 0.550663 13.4118 6.92048 7.49465 14.1724L7.49466 14.1724Z" fill="#A5A5A5"/>
</svg>
