<svg width="13" height="13" viewBox="0 0 13 13" fill="none" xmlns="http://www.w3.org/2000/svg">
<path d="M3.90902 0.236084C1.88401 0.236084 0.236328 1.88624 0.236328 3.91361V9.16594C0.236328 11.193 1.88498 12.8425 3.9105 12.8425H9.15804C11.1833 12.8425 12.8312 11.1923 12.8312 9.16496V3.91213C12.8312 1.88527 11.1826 0.236084 9.15706 0.236084H3.90902ZM10.3122 2.25311C10.5903 2.25311 10.816 2.47901 10.816 2.75736C10.816 3.03571 10.5903 3.26162 10.3122 3.26162C10.0342 3.26162 9.80845 3.03571 9.80845 2.75736C9.80845 2.47901 10.0342 2.25311 10.3122 2.25311ZM6.53378 3.26162C8.33989 3.26162 9.80845 4.73152 9.80845 6.53928C9.80845 8.34704 8.33964 9.81694 6.53378 9.81694C4.72767 9.81694 3.2591 8.34678 3.2591 6.53928C3.2591 4.73178 4.72767 3.26162 6.53378 3.26162ZM6.53378 4.27013C5.28159 4.27013 4.2667 5.28595 4.2667 6.53928C4.2667 7.79261 5.28159 8.80843 6.53378 8.80843C7.78596 8.80843 8.80086 7.79261 8.80086 6.53928C8.80086 5.28595 7.78596 4.27013 6.53378 4.27013Z" fill="#A5A5A5"/>
</svg>
