<svg width="305" height="377" viewBox="0 0 305 377" fill="none" xmlns="http://www.w3.org/2000/svg">
<path d="M128.361 53.4052C122.208 42.4711 114.117 32.7474 104.485 24.7116L86.1273 71.4959L103.945 104.345C105.668 107.527 104.578 111.501 101.471 113.357C74.5582 129.458 53.7425 154.03 42.2881 183.222C30.8337 212.413 29.3838 244.586 38.1659 274.691C39.182 278.165 37.2783 281.82 33.8512 282.981L-1.55137 294.947L-19.9088 341.732C-7.38066 342.391 5.16451 340.761 17.1106 336.929L48.9481 326.671C43.292 318.936 38.3613 310.695 34.2196 302.053L46.3957 296.226L46.3985 296.227C61.8799 328.587 89.068 353.864 122.466 366.952C140.004 373.915 158.766 377.272 177.632 376.819C196.497 376.368 215.079 372.116 232.264 364.321L304.729 179.641C297.431 162.24 286.699 146.485 273.175 133.326C259.652 120.163 243.613 109.866 226.019 103.043C203.84 94.3368 179.827 91.3597 156.193 94.3801C153.46 94.7355 150.789 93.3927 149.44 90.9892L128.361 53.4052ZM132.327 341.821L127.396 354.388C103.415 345.017 82.8333 328.602 68.3617 307.305L79.5202 299.707L79.523 299.708C92.465 318.757 110.875 333.439 132.327 341.821L132.327 341.821ZM74.0444 290.825L62.2444 297.385C59.8257 293.031 57.6585 288.539 55.7559 283.934L68.2371 278.78C69.9397 282.905 71.8777 286.926 74.0444 290.825ZM230.797 257.19C224.257 273.856 211.366 287.239 194.958 294.399C178.549 301.56 159.97 301.909 143.305 295.37C126.639 288.831 113.256 275.94 106.095 259.531C98.935 243.123 98.5852 224.544 105.125 207.878C111.664 191.213 124.555 177.829 140.963 170.669C157.372 163.509 175.951 163.159 192.616 169.698C209.268 176.255 222.639 189.147 229.799 205.549C236.955 221.952 237.314 240.523 230.797 257.19ZM93.1865 16.5484L76.9182 58.0085C63.842 43.6585 44.2794 37.0765 25.1873 40.6073C6.09626 44.1354 -9.82059 57.2763 -16.9009 75.3545L-74.4658 222.06C-81.5688 240.129 -78.8362 260.588 -67.2388 276.158C-55.6425 291.73 -36.8239 300.208 -17.4782 298.58L-33.7464 340.04C-63.7325 334.302 -89.6096 315.508 -104.345 288.767C-119.082 262.027 -121.147 230.115 -109.983 201.697L-56.7883 66.1292C-45.6472 37.7029 -22.4315 15.7108 6.55834 6.12754C35.5448 -3.4554 67.2946 0.362763 93.1858 16.5499L93.1865 16.5484ZM187.685 182.266C201.018 187.497 211.726 197.81 217.452 210.937C223.182 224.062 223.461 238.926 218.23 252.259C212.998 265.592 202.685 276.3 189.558 282.026C176.433 287.755 161.569 288.034 148.236 282.803C134.903 277.571 124.195 267.258 118.469 254.131C112.739 241.007 112.46 226.142 117.692 212.81C122.935 199.487 133.251 188.79 146.373 183.066C159.494 177.338 174.352 177.05 187.685 182.266Z" fill="#F7F5F5"/>
</svg>
