<svg width="360" height="377" viewBox="0 0 360 377" fill="none" xmlns="http://www.w3.org/2000/svg">
<path d="M245.992 53.2096C239.84 42.2756 231.749 32.5519 222.116 24.516L203.759 71.3003L221.577 104.149C223.3 107.331 222.21 111.306 219.102 113.162C192.19 129.262 171.374 153.834 159.92 183.026C148.465 212.218 147.016 244.39 155.798 274.495C156.814 277.969 154.91 281.625 151.483 282.785L116.08 294.752L97.7229 341.536C110.251 342.195 122.796 340.566 134.742 336.733L166.58 326.476C160.924 318.741 155.993 310.5 151.851 301.857L164.027 296.03L164.03 296.031C179.512 328.391 206.7 353.668 240.097 366.756C257.636 373.719 276.398 377.077 295.264 376.623C314.129 376.172 332.711 371.92 349.896 364.126L422.361 179.446C415.062 162.044 404.331 146.29 390.806 133.13C377.283 119.968 361.244 109.67 343.651 102.847C321.471 94.1413 297.459 91.1641 273.824 94.1845C271.092 94.5399 268.421 93.1971 267.072 90.7936L245.992 53.2096ZM249.959 341.625L245.028 354.192C221.047 344.821 200.465 328.406 185.993 307.11L197.152 299.511L197.155 299.512C210.097 318.561 228.507 333.243 249.959 341.625L249.959 341.625ZM191.676 290.629L179.876 297.19C177.457 292.835 175.29 288.343 173.388 283.738L185.869 278.585C187.571 282.71 189.509 286.73 191.676 290.629ZM348.428 256.995C341.889 273.66 328.998 287.043 312.59 294.204C296.181 301.364 277.602 301.714 260.937 295.175C244.271 288.635 230.887 275.744 223.727 259.336C216.567 242.927 216.217 224.348 222.756 207.683C229.295 191.017 242.186 177.634 258.595 170.474C275.004 163.313 293.582 162.964 310.248 169.503C326.9 176.06 340.271 188.952 347.431 205.354C354.586 221.757 354.946 240.327 348.428 256.995ZM210.818 16.3528L194.55 57.8129C181.474 43.4629 161.911 36.881 142.819 40.4118C123.728 43.9399 107.811 57.0807 100.731 75.159L43.166 221.864C36.0629 239.934 38.7956 260.392 50.3929 275.962C61.9892 291.535 80.8078 300.013 100.154 298.385L83.8853 339.845C53.8992 334.106 28.0221 315.313 13.2871 288.571C-1.45033 261.832 -3.51531 229.92 7.64903 201.501L60.8434 65.9336C71.9845 37.5073 95.2002 15.5152 124.19 5.93197C153.177 -3.65098 184.926 0.16719 210.818 16.3544L210.818 16.3528ZM305.317 182.07C318.65 187.302 329.358 197.615 335.084 210.741C340.814 223.866 341.093 238.731 335.861 252.063C330.63 265.396 320.316 276.104 307.19 281.83C294.065 287.56 279.2 287.839 265.868 282.607C252.535 277.376 241.827 267.063 236.101 253.936C230.371 240.811 230.092 225.947 235.323 212.614C240.567 199.292 250.882 188.595 264.005 182.87C277.126 177.142 291.984 176.854 305.317 182.07Z" fill="white"/>
</svg>
