<svg width="332" height="376" viewBox="0 0 332 376" fill="none" xmlns="http://www.w3.org/2000/svg">
<path d="M46.4897 36.8682C34.5862 32.6952 22.023 30.7223 9.41523 31.0475L26.6046 78.5606L61.8623 91.5403C65.2752 92.7991 67.09 96.5241 65.9753 99.9882C56.339 130.009 56.9291 162.38 67.6546 192.027C78.3802 221.673 98.639 246.93 125.252 263.835C128.325 265.784 129.314 269.808 127.496 272.959L108.704 305.493L125.894 353.006C135.792 345.189 144.184 335.632 150.661 324.809L167.895 295.932C158.49 293.844 149.297 290.894 140.433 287.117L145.76 274.635L145.763 274.634C178.932 288.795 216.239 289.837 250.147 277.554C268.012 271.171 284.408 261.254 298.354 248.389C312.3 235.528 323.51 219.984 331.314 202.692L263.459 15.1347C246.398 6.83832 227.837 2.06425 208.89 1.10344C189.942 0.139331 170.996 3.00882 153.182 9.53365C130.655 17.6804 110.546 31.3699 94.7029 49.3374C92.8755 51.4194 89.9669 52.1784 87.3532 51.2586L46.4897 36.8682ZM240.913 252.031L245.53 264.794C221.202 273.634 194.764 274.899 169.701 268.422L173.084 255.278L173.087 255.277C195.503 261.072 219.151 259.94 240.913 252.031ZM163.054 252.205L158.498 264.991C153.781 263.308 149.163 261.355 144.67 259.14L150.674 246.964C154.698 248.949 158.83 250.699 163.054 252.205ZM259.1 122.766C265.224 139.691 264.372 158.354 256.734 174.651C249.095 190.949 235.298 203.545 218.372 209.668C201.447 215.791 182.785 214.939 166.487 207.301C150.189 199.663 137.594 185.865 131.47 168.94C125.347 152.015 126.199 133.353 133.837 117.055C141.476 100.757 155.273 88.1616 172.199 82.0384C189.125 75.9372 207.779 76.7985 224.072 84.4319C240.363 92.0693 252.96 105.854 259.1 122.766ZM-4.53464 32.382L10.6985 74.488C-8.70034 72.3306 -27.8415 80.3445 -39.9153 95.6826C-51.9901 111.018 -55.2877 131.506 -48.6354 149.857L5.26666 298.848C11.8959 317.207 27.5383 330.842 46.6299 334.902C65.7227 338.965 85.5604 332.877 99.0887 318.807L114.322 360.913C87.8691 376.482 55.8546 379.466 26.9786 369.052C-1.89793 358.641 -24.6379 335.914 -35.0695 307.044L-84.8792 169.364C-95.3333 140.504 -92.3988 108.488 -76.8679 82.0099C-61.3394 55.5344 -34.8295 37.3446 -4.53406 32.3836L-4.53464 32.382ZM176.816 94.8013C190.356 89.9027 205.288 90.5834 218.324 96.6955C231.362 102.804 241.439 113.843 246.337 127.383C251.236 140.924 250.555 155.855 244.443 168.891C238.335 181.93 227.295 192.006 213.755 196.905C200.215 201.803 185.283 201.123 172.247 195.011C159.209 188.903 149.132 177.863 144.233 164.323C139.351 150.782 140.041 135.858 146.151 122.825C152.257 109.791 163.286 99.712 176.816 94.8013Z" fill="#F4F4F4"/>
</svg>
