<svg width="17" height="17" viewBox="0 0 17 17" fill="none" xmlns="http://www.w3.org/2000/svg">
<path d="M4.30811 7.08602C5.97875 9.86565 7.10103 10.9828 9.91934 12.6715L12.2151 10.4899C13.3711 10.7914 14.83 11.2038 16.0047 11.2128C16.3963 11.2142 16.7818 11.5996 16.7881 11.9635L16.7218 15.4077C16.7159 15.7885 16.3183 16.1664 15.919 16.185C6.1375 16.0884 0.546609 10.5232 0.339098 0.987649C0.310937 0.618971 0.708493 0.241114 1.10009 0.244101L4.97911 0.289072C5.40752 0.277963 5.79315 0.66177 5.88338 0.89452C5.76914 2.18511 6.31406 3.7674 6.60377 4.90516L4.30811 7.08602Z" fill="#AE0F0F"/>
</svg>
