<svg width="26" height="25" viewBox="0 0 26 25" fill="none" xmlns="http://www.w3.org/2000/svg">
<path d="M24.7054 23.2326L18.5793 17.1117C20.1139 15.2394 20.9555 12.8964 20.9555 10.4767C20.9555 4.69863 16.2541 0 10.4788 0C9.06684 0 7.69589 0.27624 6.40421 0.823593C5.15598 1.35304 4.03567 2.1076 3.07397 3.06936C2.11226 4.03111 1.35513 5.15142 0.825677 6.3996C0.278314 7.69128 -0.000488281 9.06228 -0.000488281 10.4742C-0.000488281 16.2523 4.70095 20.9509 10.4762 20.9509C12.8985 20.9509 15.2389 20.1094 17.1112 18.5747L23.2321 24.6956C23.4291 24.8926 23.69 25 23.9662 25C24.245 25 24.5059 24.8926 24.7003 24.6956C25.1095 24.2941 25.1095 23.6367 24.7054 23.2326L24.7054 23.2326ZM18.8814 10.4744C18.8814 15.1091 15.1113 18.8768 10.479 18.8768C5.84427 18.8768 2.07657 15.1067 2.07657 10.4744C2.07657 5.84213 5.84674 2.07196 10.479 2.07196C15.1113 2.07196 18.8814 5.84213 18.8814 10.4744Z" fill="white"/>
</svg>
