<svg width="17" height="14" viewBox="0 0 17 14" fill="none" xmlns="http://www.w3.org/2000/svg">
<path d="M16.3271 1.60805C15.7364 1.88301 15.1011 2.06631 14.431 2.15294C15.1124 1.72809 15.6365 1.05045 15.8824 0.249826C15.245 0.642453 14.5388 0.930714 13.7873 1.08268C13.1873 0.414505 12.3314 0 11.3832 0C9.56165 0 8.08545 1.53739 8.08545 3.43282C8.08545 3.70098 8.11528 3.96233 8.17157 4.216C5.43138 4.07143 3.00106 2.70315 1.37513 0.626488C1.08946 1.13383 0.928748 1.72809 0.928748 2.35517C0.928748 3.54694 1.50966 4.59592 2.39538 5.21413C1.85472 5.19668 1.34586 5.0388 0.900321 4.78543C0.900321 4.79578 0.900321 4.81115 0.900321 4.82564C0.900321 6.49105 2.03738 7.87766 3.54454 8.19341C3.269 8.27265 2.97798 8.3167 2.67796 8.3167C2.4649 8.3167 2.25747 8.29128 2.05652 8.25343C2.47616 9.61432 3.69371 10.6092 5.13614 10.6385C4.00752 11.5576 2.5862 12.1081 1.04048 12.1081C0.773388 12.1081 0.512484 12.0922 0.254395 12.0594C1.71427 13.0306 3.44828 13.6 5.30951 13.6C11.3745 13.6 14.6922 8.36814 14.6922 3.82959C14.6922 3.68087 14.6877 3.53275 14.6809 3.3864C15.3286 2.90626 15.8864 2.30018 16.3271 1.60805Z" fill="#A5A5A5"/>
</svg>
