<svg width="29" height="24" viewBox="0 0 29 24" fill="none" xmlns="http://www.w3.org/2000/svg">
<path d="M15.1084 14.8485H11.284C11.0174 14.8485 10.8011 15.0648 10.8011 15.3314C10.8046 15.4213 10.833 15.5082 10.8833 15.5826L10.7722 15.6211H10.772C10.1921 14.5027 9.09924 13.7412 7.84934 13.5845C6.59928 13.4275 5.35197 13.8957 4.51386 14.8363C3.67576 15.7768 3.35386 17.0696 3.65308 18.2934C3.95229 19.5172 4.83438 20.5155 6.01183 20.963C7.18949 21.4107 8.51201 21.2506 9.54868 20.5347C10.5853 19.8187 11.2034 18.6388 11.2019 17.3789C11.2019 17.0929 11.1695 16.8079 11.1053 16.5292L13.0754 15.8146H15.1132V15.8144C15.3798 15.8144 15.596 15.5984 15.596 15.3315C15.596 15.0648 15.3798 14.8486 15.1132 14.8486L15.1084 14.8485ZM10.2361 17.3789C10.2402 18.3257 9.7815 19.2147 9.00738 19.7601C8.23351 20.3052 7.24188 20.4378 6.35157 20.1153C5.46148 19.7926 4.78523 19.0554 4.54037 18.1409C4.29527 17.2263 4.51278 16.2497 5.12264 15.5254C5.73227 14.8011 6.65746 14.4206 7.60036 14.506C8.54326 14.5916 9.38507 15.1322 9.85459 15.9544L7.20352 16.9201H7.20374C6.95303 17.0109 6.82348 17.2875 6.91401 17.5382C6.983 17.7294 7.16451 17.8568 7.36779 17.857C7.42427 17.8574 7.48032 17.8458 7.53205 17.8231L10.1879 16.8574C10.2191 17.0294 10.2351 17.204 10.2362 17.3788L10.2361 17.3789Z" fill="#DC0505"/>
<path d="M25.9876 7.29638C27.25 6.45027 28.0071 5.03034 28.006 3.51053V0.482875C28.006 0.216218 27.7898 0 27.5231 0C27.2565 0 27.0403 0.216218 27.0403 0.482875V3.51053C27.042 4.708 26.4459 5.82744 25.4515 6.49464L24.2008 7.32998L24.5341 4.17187L25.3597 3.42814L25.3599 3.42835C25.4565 3.34298 25.5151 3.22248 25.5222 3.09357C25.5296 2.96488 25.4849 2.83855 25.3985 2.74284C25.2224 2.54301 24.9178 2.5236 24.7177 2.69929L20.1304 6.82785C19.9385 7.00483 19.9222 7.3021 20.0931 7.49913C20.2641 7.69615 20.5607 7.72181 20.7629 7.5569L21.5017 6.88562L20.8256 13.3462L8.97617 11.2024L7.97185 8.58037H7.97163C7.877 8.33354 7.6015 8.20873 7.35361 8.30035L6.68233 8.55623L5.57646 5.65898H7.40686C7.85719 5.65747 8.27648 5.42962 8.52266 5.05238C8.76884 4.67535 8.80851 4.1996 8.62851 3.78675C8.44851 3.37393 8.07279 3.07949 7.62893 3.00317L3.43267 2.29828L2.31256 1.63672C2.00107 1.45154 1.63394 1.38277 1.27656 1.44292C0.919145 1.50306 0.594521 1.68802 0.360809 1.96481C0.126916 2.2416 -0.00113152 2.59255 -0.000485851 2.9549C-0.000485851 3.67209 0.284498 4.35998 0.791539 4.86697C1.29877 5.37421 1.98642 5.659 2.70361 5.659H2.85818L4.3068 9.464L3.64524 9.71513C3.52452 9.76083 3.42708 9.8531 3.37491 9.97101C3.32663 10.0887 3.32663 10.2204 3.37491 10.3381L3.96882 11.8978C3.45857 12.1897 2.99491 12.5557 2.5926 12.9843C1.47294 14.199 0.865676 15.7992 0.897573 17.4509C0.967846 19.1511 1.6971 20.7571 2.93106 21.9289C4.16501 23.1008 5.80673 23.746 7.50821 23.7283H22.8537C24.1415 23.749 25.3892 23.2805 26.3455 22.4176C27.3015 21.5547 27.895 20.3613 28.006 19.0782C28.1032 17.6962 27.6162 16.3368 26.6637 15.331C25.8421 14.4554 24.7334 13.9035 23.5394 13.7763L24.0803 8.57572L25.9876 7.29638ZM22.6075 5.92016L23.4814 5.13784L22.5689 13.6607L21.7916 13.5206L22.6075 5.92016ZM0.964788 2.95519C0.964572 2.75428 1.07365 2.56932 1.24977 2.47232C1.33665 2.42295 1.43473 2.39644 1.53454 2.39515C1.63543 2.3945 1.73437 2.42317 1.81953 2.47728L3.017 3.18217C3.06809 3.21062 3.12349 3.23024 3.18127 3.24016L7.46914 3.95972V3.95951C7.64677 3.99206 7.77654 4.14597 7.77805 4.32662C7.77935 4.42557 7.74076 4.52084 7.6707 4.59091C7.60064 4.66097 7.50536 4.69977 7.40641 4.69848H2.7031C2.24156 4.69718 1.79943 4.51287 1.47373 4.18607C1.14779 3.85926 0.964766 3.41672 0.964766 2.95515L0.964788 2.95519ZM3.8909 5.65929H4.54275L5.79348 8.89952L5.22374 9.11681L3.8909 5.65929ZM4.44146 10.4253L7.24214 9.37743L7.87959 11.0434C6.84375 10.9468 5.79997 11.0958 4.83251 11.478L4.44146 10.4253ZM27.04 19.0155C26.9508 20.0556 26.4698 21.0233 25.6944 21.7224C24.919 22.4217 23.9071 22.8002 22.8631 22.7819H7.50769C6.05565 22.7994 4.65398 22.2505 3.60005 21.2516C2.54611 20.2527 1.92312 18.8825 1.8628 17.4315C1.83931 16.0271 2.35818 14.6677 3.31143 13.6362C4.33689 12.564 5.75858 11.9614 7.24214 11.9703C7.58856 11.9696 7.93455 12.0005 8.2756 12.0621C8.2756 12.0621 22.955 14.7132 22.9837 14.7132V14.713C24.0971 14.7244 25.1588 15.184 25.9292 15.9879C26.7076 16.7967 27.1105 17.8952 27.0398 19.0155L27.04 19.0155Z" fill="#DC0505"/>
</svg>
