<svg width="28" height="28" viewBox="0 0 28 28" fill="none" xmlns="http://www.w3.org/2000/svg">
<path d="M25.7414 0H2.25758C1.65897 0.000806452 1.08498 0.238911 0.661602 0.66209C0.238418 1.08548 0.000337525 1.65946 -0.000488281 2.25806V25.7419C0.00031817 26.3405 0.238423 26.9145 0.661602 27.3379C1.08499 27.7611 1.65897 27.9992 2.25758 28H25.7414C26.3401 27.9992 26.914 27.7611 27.3374 27.3379C27.7606 26.9145 27.9987 26.3405 27.9995 25.7419V2.25806C27.9987 1.65946 27.7606 1.08547 27.3374 0.66209C26.914 0.238906 26.3401 0.000825806 25.7414 0ZM27.0963 25.7419C27.0963 26.1012 26.9535 26.446 26.6995 26.7C26.4455 26.954 26.1007 27.0967 25.7415 27.0967H2.2576C1.89833 27.0967 1.55355 26.954 1.29956 26.7C1.04558 26.4459 0.902789 26.1012 0.902789 25.7419V2.25806C0.902789 1.89879 1.04553 1.55401 1.29956 1.30003C1.5536 1.04604 1.89838 0.903252 2.2576 0.903252H25.7415C26.1007 0.903252 26.4455 1.04599 26.6995 1.30003C26.9535 1.55406 27.0963 1.89884 27.0963 2.25806V25.7419Z" fill="#DC0505"/>
<path d="M24.8381 1.80652H3.16072C2.80145 1.80652 2.45667 1.94926 2.20268 2.20329C1.9487 2.45733 1.80591 2.80211 1.80591 3.16133V24.8388C1.80591 25.198 1.94865 25.5428 2.20268 25.7968C2.45672 26.0508 2.8015 26.1936 3.16072 26.1936H24.8381C25.1974 26.1936 25.5422 26.0508 25.7962 25.7968C26.0502 25.5428 26.193 25.198 26.193 24.8388V3.16133C26.193 2.80206 26.0502 2.45728 25.7962 2.20329C25.5421 1.94931 25.1974 1.80652 24.8381 1.80652ZM3.16072 2.70974H24.8381C24.9579 2.70974 25.0728 2.75733 25.1575 2.842C25.2422 2.92668 25.2898 3.0416 25.2898 3.16136V18.9678H23.0317V14.5845C23.0424 13.6293 22.6843 12.7069 22.0321 12.0093C21.3797 11.3115 20.4835 10.8924 19.5299 10.8387C18.3847 10.803 17.2906 11.3127 16.5811 12.2123C15.8714 13.1119 15.6307 14.2946 15.9319 15.4C16.2644 16.5678 16.4993 17.7611 16.6341 18.9678H11.365C11.4998 17.7611 11.7347 16.5678 12.0671 15.4C12.3684 14.2946 12.1276 13.1119 11.418 12.2123C10.7085 11.3127 9.61435 10.803 8.46916 10.8387C7.51551 10.8924 6.61935 11.3115 5.96697 12.0093C5.31473 12.7069 4.95669 13.6293 4.96738 14.5845V18.9678H2.70931V3.16136C2.70931 2.91196 2.91153 2.70974 3.16093 2.70974H3.16072ZM16.8036 15.1624C16.5822 14.3477 16.7534 13.4765 17.2661 12.806C17.7788 12.1354 18.5747 11.7421 19.4189 11.7423H19.5034C20.2227 11.7872 20.8969 12.1076 21.3858 12.637C21.875 13.1665 22.1409 13.864 22.1286 14.5848V21.1123C22.1393 21.7133 21.9177 22.2953 21.5101 22.737C21.1024 23.179 20.5401 23.4465 19.9401 23.484C19.3292 23.5028 18.7369 23.2734 18.2982 22.8478C17.8597 22.4222 17.6123 21.8371 17.6125 21.226V20.3742C17.5801 18.6082 17.3079 16.855 16.8036 15.1623L16.8036 15.1624ZM10.3865 20.3743V21.2261C10.3887 21.8374 10.1408 22.4229 9.70044 22.8468C9.26475 23.2769 8.6706 23.5075 8.05889 23.4841C7.45889 23.4466 6.89657 23.1791 6.48893 22.7372C6.08127 22.2954 5.85971 21.7134 5.8704 21.1124V14.5849C5.8581 13.8641 6.12423 13.1666 6.61316 12.6371C7.10227 12.1077 7.77667 11.7871 8.496 11.7424H8.58047C9.4246 11.7424 10.2204 12.1357 10.7331 12.8063C11.2458 13.4768 11.4165 14.3478 11.1954 15.1625C10.6912 16.8552 10.419 18.6085 10.3865 20.3744L10.3865 20.3743ZM24.8381 25.2906H3.16072C2.91133 25.2906 2.70911 25.0884 2.70911 24.839V19.8712H4.96717V21.1124C4.9579 21.9477 5.2714 22.7545 5.84217 23.3646C6.41295 23.9747 7.19721 24.341 8.03128 24.3874H8.13027C8.96877 24.3874 9.7728 24.0543 10.3656 23.4614C10.9585 22.8687 11.2916 22.0646 11.2916 21.2261V20.3743C11.2916 20.2081 11.2956 20.04 11.302 19.8712H16.6987C16.7049 20.0402 16.7092 20.2081 16.7092 20.3743V21.2261C16.7092 22.0646 17.0422 22.8686 17.6352 23.4614C18.2279 24.0543 19.0319 24.3874 19.8705 24.3874H19.9695C20.8033 24.3406 21.587 23.9741 22.1574 23.364C22.7278 22.7539 23.041 21.9475 23.0318 21.1124V19.8712H25.2898V24.839C25.2898 24.9587 25.2422 25.0737 25.1576 25.1583C25.0729 25.243 24.958 25.2906 24.8382 25.2906H24.8381Z" fill="#DC0505"/>
<path d="M6.3221 9.93544H21.6769C22.0362 9.93544 22.381 9.7927 22.635 9.53867C22.889 9.28464 23.0318 8.93986 23.0318 8.58063V4.96773C23.0318 4.60846 22.889 4.26368 22.635 4.00969C22.3809 3.7557 22.0362 3.61292 21.6769 3.61292H6.3221C5.96283 3.61292 5.61805 3.75566 5.36406 4.00969C5.11007 4.26372 4.96729 4.6085 4.96729 4.96773V8.58063C4.96729 8.9399 5.11003 9.28468 5.36406 9.53867C5.61809 9.79266 5.96287 9.93544 6.3221 9.93544ZM5.87049 4.9677C5.87049 4.71831 6.0727 4.51609 6.3221 4.51609H21.6769C21.7967 4.51609 21.9116 4.56367 21.9963 4.64835C22.081 4.73302 22.1286 4.84794 22.1286 4.9677V8.58061C22.1286 8.70036 22.081 8.81528 21.9963 8.89996C21.9116 8.98464 21.7967 9.03222 21.6769 9.03222H6.3221C6.0727 9.03222 5.87049 8.83 5.87049 8.58061V4.9677Z" fill="#DC0505"/>
<path d="M17.1608 8.58068H18.9673C19.0871 8.58068 19.202 8.5331 19.2866 8.44842C19.3713 8.36374 19.4189 8.24882 19.4189 8.12906V5.41939C19.4189 5.29963 19.3713 5.18471 19.2866 5.10003C19.202 5.01536 19.0871 4.96777 18.9673 4.96777H17.1608C16.9114 4.96777 16.7092 5.16999 16.7092 5.41939V8.12906C16.7092 8.24882 16.7568 8.36374 16.8415 8.44842C16.9262 8.53309 17.0411 8.58068 17.1608 8.58068ZM17.6125 5.871H18.5157V7.67745H17.6125V5.871Z" fill="#DC0505"/>
<path d="M20.322 7.67737H21.2252V8.58059H20.322V7.67737Z" fill="#DC0505"/>
<path d="M20.7738 14.4515H21.677C21.6762 13.8529 21.4381 13.279 21.0149 12.8556C20.5915 12.4324 20.0176 12.1943 19.4189 12.1935V13.0967C19.7782 13.0967 20.123 13.2394 20.377 13.4935C20.631 13.7475 20.7738 14.0923 20.7738 14.4515L20.7738 14.4515Z" fill="#DC0505"/>
<path d="M6.32205 14.4516H7.22527C7.22527 14.0924 7.36801 13.7476 7.62205 13.4936C7.87608 13.2396 8.22086 13.0968 8.58009 13.0968V12.1936C7.98148 12.1944 7.40749 12.4325 6.98411 12.8557C6.56093 13.2791 6.32285 13.8531 6.32202 14.4517L6.32205 14.4516Z" fill="#DC0505"/>
</svg>
