<svg width="32" height="26" viewBox="0 0 32 26" fill="none" xmlns="http://www.w3.org/2000/svg">
<path d="M29.8306 5.88882H29.8284V5.14703C29.8284 4.41162 29.2302 3.8134 28.4946 3.8134C28.268 3.8134 28.0577 3.87549 27.8708 3.97545C27.8314 3.27526 27.2545 2.71622 26.5445 2.71622C25.809 2.71622 25.2108 3.31444 25.2108 4.04985V5.88859L24.0121 5.88881V1.2456C24.0121 0.558831 23.4533 1.14612e-05 22.7665 1.14612e-05C22.0795 -0.000208764 21.5207 0.558617 21.5207 1.2456V3.90521C21.5156 3.90521 21.5108 3.90367 21.5057 3.90367H18.4238C18.1517 3.90367 17.8963 4.00936 17.7039 4.20113L16.2723 5.62924C16.215 5.68627 16.139 5.71754 16.0585 5.71754H15.2656C15.1852 5.71754 15.1095 5.68627 15.0529 5.62968L13.6209 4.20112C13.4284 4.00913 13.1728 3.90366 12.9009 3.90366H9.81897C9.81391 3.90366 9.80885 3.9052 9.80378 3.9052L9.80444 1.24559C9.80444 0.55882 9.24562 6.50681e-08 8.55885 6.50681e-08C7.87185 -0.00022016 7.31303 0.558606 7.31303 1.24559V5.8888H6.11456V4.05006C6.11456 3.31465 5.51634 2.71643 4.78093 2.71643C4.07082 2.71643 3.49396 3.27547 3.45456 3.97566C3.26741 3.8757 3.05735 3.8136 2.83081 3.8136C2.09539 3.8136 1.49717 4.41182 1.49717 5.14724V5.88903L1.49453 5.88881C0.670163 5.88881 -0.000488281 6.55946 -0.000488281 7.38382C-0.000488281 8.20819 0.670163 8.87884 1.49453 8.87884H1.49717V9.62062C1.49717 10.3563 2.09539 10.9545 2.83081 10.9545C3.05737 10.9545 3.26765 10.8924 3.45456 10.7922C3.49419 11.4922 4.07087 12.0512 4.78093 12.0512C5.51634 12.0512 6.11456 11.453 6.11456 10.7176V8.87884H7.31303V16.9539C6.85483 17.1085 6.50101 17.5042 6.43343 17.9804L4.80077 25.05C4.77633 25.1565 4.80143 25.2686 4.86969 25.354C4.93772 25.4397 5.04099 25.4894 5.15042 25.4894L11.9669 25.4892C12.0761 25.4892 12.1795 25.4395 12.2476 25.3538C12.3158 25.2684 12.3409 25.1565 12.3165 25.0497L10.6896 18.0101C10.6178 17.5107 10.2629 17.1097 9.80424 16.9543V14.9309H21.5206V16.9539C21.062 17.1085 20.7082 17.5042 20.641 17.9804L19.0081 25.05C18.9837 25.1565 19.0088 25.2686 19.0771 25.354C19.1451 25.4397 19.2484 25.4894 19.3578 25.4894L26.1742 25.4892C26.2834 25.4892 26.3869 25.4395 26.455 25.3538C26.5232 25.2684 26.5483 25.1563 26.5239 25.0497L24.8967 18.0101C24.8252 17.5105 24.4705 17.1095 24.0116 16.9541V8.87846H25.2103V10.7172C25.2103 11.4526 25.8085 12.0508 26.5439 12.0508C27.2541 12.0508 27.8307 11.4918 27.8703 10.7918C28.0575 10.8918 28.2675 10.9541 28.4941 10.9541C29.2297 10.9541 29.8279 10.3559 29.8279 9.62024L29.8281 8.87845H29.8303C30.6547 8.87845 31.3254 8.2078 31.3254 7.38344C31.3251 6.55908 30.6545 5.88842 29.8301 5.88842L29.8306 5.88882ZM1.49451 8.16153C1.06582 8.16153 0.716822 7.81254 0.716822 7.38383C0.716822 6.95513 1.06581 6.60614 1.49451 6.60614H1.49716V8.16153H1.49451ZM2.8308 10.2369C2.49106 10.2369 2.21449 9.9604 2.21449 9.62041V5.14698C2.21449 4.80724 2.49103 4.53066 2.8308 4.53066C3.17054 4.53066 3.44711 4.80721 3.44711 5.14698V9.62041C3.44711 9.96037 3.17057 10.2369 2.8308 10.2369ZM5.39723 10.7176C5.39723 11.0573 5.12069 11.3339 4.78092 11.3339C4.44096 11.3339 4.16438 11.0574 4.16438 10.7176V4.04998C4.16438 3.71024 4.44093 3.43367 4.78092 3.43367C5.12066 3.43367 5.39723 3.71022 5.39723 4.04998V10.7176ZM22.7666 0.717582C23.0579 0.717582 23.2949 0.954717 23.2949 1.2458V5.30595L22.2384 4.2143L22.2382 1.2458C22.2382 0.954497 22.4754 0.717582 22.7667 0.717582H22.7666ZM8.55884 0.717582C8.85015 0.717582 9.08706 0.954717 9.08706 1.2458V4.21452L8.03064 5.30618V1.2458C8.03064 0.954497 8.26777 0.717582 8.55886 0.717582H8.55884ZM9.08728 16.8824H8.03086V8.86596C8.25742 8.83579 8.47166 8.73429 8.63173 8.56871L9.08728 8.09796V16.8827V16.8824ZM11.5163 24.7721H5.60179L7.13846 18.1129C7.18051 17.8203 7.43504 17.5999 7.73054 17.5999H9.38828C9.68377 17.5999 9.9383 17.8203 9.98566 18.1426L11.5163 24.7721ZM21.5175 14.2135H9.80506V13.178H21.5181L21.5175 14.2135ZM9.80506 12.4606V7.35629L10.1642 6.98528C10.2203 6.92716 10.2991 6.89369 10.3804 6.89369H12.3557C12.4362 6.89369 12.512 6.92495 12.5686 6.98154L14.0004 8.40987C14.1928 8.60187 14.4485 8.70756 14.7206 8.70756H16.6067C16.8786 8.70756 17.134 8.60209 17.3263 8.41031L18.7583 6.98175C18.8145 6.92561 18.8922 6.89368 18.9714 6.89368H20.946C21.0273 6.89368 21.1065 6.92737 21.1629 6.9855L21.5214 7.35584V12.4608L9.80506 12.4606ZM22.239 8.09723L22.6948 8.5682C22.8548 8.73356 23.0689 8.83506 23.2954 8.86523V16.8817H22.239L22.239 8.09723ZM25.7247 24.7716H19.8102L21.3468 18.1119C21.3889 17.8195 21.6432 17.5991 21.9387 17.5991H23.5966C23.8921 17.5991 24.1464 17.8195 24.1938 18.1418L25.7247 24.7716ZM23.4278 8.16149C23.3463 8.16149 23.267 8.1278 23.2107 8.06945L21.6786 6.48633C21.4875 6.28927 21.2206 6.17632 20.9463 6.17632L18.9717 6.1761C18.6998 6.1761 18.4442 6.28179 18.2517 6.47356L16.8197 7.90212C16.7629 7.95871 16.6874 7.98997 16.607 7.98997H14.7209C14.6401 7.98997 14.5644 7.95871 14.5076 7.9019L13.0755 6.47334C12.8831 6.28156 12.6276 6.1761 12.3559 6.1761H10.3807C10.1059 6.1761 9.83879 6.28927 9.64857 6.48633L8.11652 8.06923C8.05994 8.12758 7.98089 8.16126 7.89964 8.16126H6.11552V6.60588H7.33975C7.6141 6.60588 7.88096 6.49292 8.07184 6.29564L9.60411 4.7123C9.66048 4.65417 9.73931 4.6207 9.82055 4.6207H12.9025C12.983 4.6207 13.059 4.65197 13.1158 4.70878L14.5479 6.13733C14.7403 6.32911 14.9957 6.43458 15.2672 6.43458H16.0601C16.332 6.43458 16.5876 6.32911 16.7803 6.13711L18.2121 4.70878C18.2683 4.65263 18.346 4.62071 18.4252 4.62071H21.5071C21.5884 4.62071 21.6674 4.65418 21.7236 4.7123L23.2559 6.29565C23.4465 6.49293 23.7136 6.60588 23.9879 6.60588H25.2122V8.16127L23.4278 8.16149ZM27.1618 10.7176C27.1618 11.0573 26.8853 11.3339 26.5453 11.3339C26.2056 11.3339 25.929 11.0574 25.929 10.7176V4.04998C25.929 3.71024 26.2055 3.43367 26.5453 3.43367C26.8853 3.43367 27.1618 3.71022 27.1618 4.04998V10.7176ZM29.112 9.62043C29.112 9.96039 28.8355 10.237 28.4955 10.237C28.1557 10.237 27.8792 9.96042 27.8792 9.62043V5.14699C27.8792 4.80725 28.1557 4.53068 28.4955 4.53068C28.8354 4.53068 29.112 4.80723 29.112 5.14699V9.62043ZM29.8316 8.16149H29.8294V6.6061H29.8316C30.2603 6.6061 30.6093 6.95509 30.6093 7.38379C30.6093 7.8125 30.2603 8.16149 29.8316 8.16149Z" fill="#AE0F0F"/>
</svg>
