<svg width="32" height="32" viewBox="0 0 32 32" fill="none" xmlns="http://www.w3.org/2000/svg">
<path d="M26.6975 4.58083C23.7436 1.62657 19.8159 0 15.6389 0C11.4619 0 7.53381 1.62662 4.58034 4.58083C1.62608 7.53463 -0.000488281 11.4624 -0.000488281 15.6394C-0.000488281 19.8164 1.62614 23.7445 4.58034 26.6979C7.53414 29.6522 11.4619 31.2788 15.6389 31.2788C19.8159 31.2788 23.744 29.6521 26.6975 26.6979C29.6517 23.7441 31.2783 19.8164 31.2783 15.6394C31.2783 11.4624 29.6517 7.5343 26.6975 4.58083ZM28.2209 17.7265C27.3088 20.1228 25.9196 22.2651 24.0915 24.0927C22.2631 25.921 20.1215 27.3102 17.7253 28.2221C15.4297 29.0954 13.0167 29.4899 10.5533 29.3949C8.98492 28.8159 7.52108 27.9671 6.21885 26.871C6.74192 26.914 7.26695 26.9354 7.79136 26.9354C9.73184 26.9354 11.6712 26.6441 13.5189 26.0669C16.4468 25.1531 19.1482 23.5162 21.3312 21.3334C23.5147 19.15 25.1516 16.449 26.0648 13.5211C26.7977 11.1734 27.0693 8.67713 26.8682 6.22009C27.9643 7.5221 28.8131 8.98616 29.392 10.5545C29.4886 13.0185 29.0948 15.4313 28.2208 17.7265L28.2209 17.7265ZM1.55049 11.57C3.78121 10.6119 5.78853 9.25103 7.51968 7.52078C9.25055 5.78992 10.6108 3.7826 11.5694 1.5516C12.7537 1.2112 13.9871 1.01932 15.248 0.986696C14.5505 4.51572 12.8407 7.7185 10.2795 10.28C7.71818 12.8413 4.51551 14.5511 0.986152 15.2485C1.01835 13.9877 1.21023 12.7543 1.5506 11.5699L1.55049 11.57ZM0.993683 16.2466C4.78576 15.5351 8.22904 13.7179 10.9728 10.9738C13.7168 8.2298 15.5342 4.78701 16.2456 0.994659C17.1969 1.03321 18.1322 1.16201 19.0417 1.37733C18.9203 6.04647 17.044 10.4217 13.732 13.7335C10.4201 17.0452 6.04526 18.9215 1.37589 19.0431C1.16057 18.1336 1.03112 17.199 0.993223 16.247L0.993683 16.2466ZM14.4259 14.4274C17.8598 10.9935 19.8292 6.47487 20.0139 1.64345C20.8449 1.90236 21.6497 2.23465 22.4205 2.63833C22.9313 8.05086 21.0314 13.3408 17.1852 17.187C13.7506 20.6216 9.16533 22.5045 4.36867 22.5045C3.7939 22.5045 3.21498 22.4756 2.63539 22.421C2.23235 21.6507 1.90008 20.8461 1.6418 20.0161C6.47322 19.8304 10.9912 17.8616 14.4258 14.4275L14.4259 14.4274ZM4.36996 23.4858C9.42501 23.4858 14.2582 21.501 17.879 17.8814C21.7712 13.9892 23.7719 8.69572 23.4497 3.23065C24.2624 3.74453 25.0297 4.34206 25.7405 5.01916C26.1624 7.7563 25.9521 10.5918 25.1289 13.2297C24.2624 16.0067 22.7094 18.5693 20.6381 20.6405C18.5668 22.7118 16.0038 24.2646 13.2272 25.1314C10.59 25.9546 7.75465 26.1648 5.01673 25.7429C4.33968 25.0321 3.74231 24.2648 3.22822 23.4521C3.60979 23.4738 3.99072 23.4857 4.36985 23.4857L4.36996 23.4858ZM5.27327 5.27487C6.72685 3.82129 8.43187 2.71117 10.2909 1.98377C9.41447 3.77334 8.25288 5.3993 6.8256 6.82657C5.39832 8.25385 3.77299 9.41545 1.98279 10.2918C2.70958 8.43413 3.8197 6.72844 5.27327 5.27487ZM26.0036 26.0052C23.2352 28.7737 19.5539 30.2985 15.6387 30.2985C15.0714 30.2985 14.5089 30.2654 13.9539 30.2021C15.357 30.0034 16.7346 29.6494 18.0747 29.1393C20.6015 28.1777 22.8592 26.7129 24.7858 24.7865C26.7122 22.86 28.1768 20.6019 29.1386 18.0754C29.6483 16.7353 30.0027 15.3577 30.2009 13.9539C30.264 14.5096 30.2973 15.0719 30.2973 15.6398C30.2971 19.5554 28.7723 23.2369 26.0039 26.0053L26.0036 26.0052Z" fill="#AE0F0F"/>
</svg>
