<svg width="26" height="29" viewBox="0 0 26 29" fill="none" xmlns="http://www.w3.org/2000/svg">
<path d="M1.15579 1.0047H0.547191C0.242777 1.0047 -0.000488281 1.24819 -0.000488281 1.55238V6.05636C-0.000488281 6.36077 0.243 6.60404 0.547191 6.60404H1.15579C1.4602 6.60404 1.70347 6.36055 1.70347 6.05636L1.70368 1.55238C1.73404 1.24818 1.46019 1.0047 1.15579 1.0047H1.15579Z" fill="#AE0F0F"/>
<path d="M22.2153 0.000380407H20.9675C20.6631 0.000380407 20.4198 0.243869 20.4198 0.54806V3.31749H18.5937C18.3806 3.04364 18.046 2.86108 17.6807 2.89144C17.3763 2.9218 17.133 3.074 16.9502 3.31749H8.12477C7.94221 3.10436 7.69872 2.9218 7.39433 2.89144C7.0292 2.86108 6.69443 3.01308 6.4813 3.31749H4.65523L4.65565 0.54806C4.65565 0.243646 4.41216 0.000380407 4.10797 0.000380407H2.86018C2.55577 0.000380407 2.3125 0.243869 2.3125 0.54806V7.03022C2.3125 7.33463 2.55599 7.5779 2.86018 7.5779H4.10797C4.41239 7.5779 4.65565 7.33441 4.65565 7.03022V4.26079H6.23821C5.87308 8.36931 6.26856 8.94731 6.45134 9.19083C6.81646 9.73851 8.45995 11.5037 10.1338 12.0819L10.2554 18.2597L9.06835 27.5417C8.97706 28.2112 9.46404 28.8198 10.103 28.8808C10.7725 28.972 11.3812 28.4851 11.4421 27.8461L12.5377 19.3858L13.6029 27.8461C13.6942 28.4547 14.2115 28.9114 14.7898 28.9114H14.942C15.6115 28.8201 16.068 28.2115 15.9767 27.5723L14.8202 18.2599L14.9418 12.082C16.5851 11.5038 18.2285 9.73867 18.6243 9.19099C18.8068 8.9475 19.2025 8.33888 18.8374 4.26095H20.4199V7.03038C20.4199 7.3348 20.6634 7.57806 20.9676 7.57806H22.2154C22.5198 7.57806 22.7631 7.33457 22.7631 7.03038V0.547679C22.7935 0.243478 22.5196 0 22.2152 0L22.2153 0.000380407ZM16.8592 8.09547C16.2809 8.88667 14.6376 10.1954 13.9375 10.1954H11.1377C10.4378 10.1954 8.82488 8.85629 8.21607 8.09547C8.12479 7.57814 8.18571 5.78264 8.30735 4.26101H16.7372C16.8894 5.78243 16.9503 7.57812 16.859 8.09547H16.8592Z" fill="#AE0F0F"/>
<path d="M24.5281 1.0047H23.9195C23.6151 1.0047 23.3718 1.24819 23.3718 1.55238V6.05636C23.3718 6.36077 23.6153 6.60404 23.9195 6.60404H24.5281C24.8325 6.60404 25.0758 6.36055 25.0758 6.05636V1.55238C25.0758 1.24818 24.8323 1.0047 24.5281 1.0047Z" fill="#AE0F0F"/>
<path d="M14.9722 7.18253C14.9722 8.52711 13.8822 9.6172 12.5376 9.6172C11.193 9.6172 10.1029 8.52711 10.1029 7.18253C10.1029 5.83795 11.193 4.74786 12.5376 4.74786C13.8822 4.74786 14.9722 5.83795 14.9722 7.18253" fill="#AE0F0F"/>
</svg>
