<svg width="21" height="31" viewBox="0 0 21 31" fill="none" xmlns="http://www.w3.org/2000/svg">
<path d="M20.3826 30.1477H0.761802C0.517113 30.1477 0.318481 29.949 0.318481 29.7038C0.318481 29.4587 0.516881 29.2598 0.761802 29.2598H20.3826C20.6273 29.2598 20.826 29.4585 20.826 29.7038C20.826 29.949 20.6273 30.1477 20.3826 30.1477Z" fill="#AE0F0F"/>
<path d="M5.79021 2.62292C5.79021 4.01321 4.66471 5.14037 3.27633 5.14037C1.88825 5.14037 0.762695 4.01327 0.762695 2.62292C0.762695 1.23263 1.88819 0.105713 3.27633 0.105713C4.66466 0.105713 5.79021 1.23257 5.79021 2.62292Z" fill="#AE0F0F"/>
<path d="M5.21925 11.5324C5.24647 10.9407 4.84594 10.4369 4.32937 10.4131L2.98172 10.3065L3.83462 8.60568L4.207 8.8011L6.84973 13.4325L10.3202 8.79251L8.7144 6.85179L11.5948 6.98433C12.1114 7.00809 12.5563 6.54341 12.5836 5.9518C12.6108 5.3602 12.2102 4.85637 11.6937 4.83258L6.82597 4.60851C6.53337 4.595 6.2424 4.63646 5.96539 4.73173C4.5966 5.20153 2.85423 5.9355 2.85423 5.9355C2.65304 6.04242 2.49278 6.21151 2.39253 6.41323C2.39137 6.41555 2.38951 6.41625 2.38835 6.41858L0.322715 10.8097C-0.159452 11.5827 0.633462 12.2973 1.15008 12.3214L4.23075 12.565C4.74734 12.5888 5.19208 12.1241 5.21929 11.5325L5.21925 11.5324Z" fill="#AE0F0F"/>
<path d="M19.9284 0.300955C19.4451 -0.0405123 18.7706 0.0761863 18.4296 0.560201L11.6195 10.3625L11.1932 9.84727L7.56895 14.6928L8.50188 16.3279L4.56527 26.5607C4.38384 27.208 4.61481 27.9561 5.16678 28.1693C5.71872 28.3822 6.39111 27.9825 6.66097 27.281L11.1758 15.5312C11.544 14.5727 12.0241 13.6613 12.6062 12.8158L20.1873 1.80186C20.5283 1.31808 20.4118 0.642631 19.9285 0.30114L19.9284 0.300955Z" fill="#AE0F0F"/>
</svg>
