<svg width="67" height="43" viewBox="0 0 67 43" fill="none" xmlns="http://www.w3.org/2000/svg">
<path d="M4.28601 0.000644871C1.91901 0.00100471 0.000369171 1.92559 1.80868e-06 4.29993V23.6415C-0.00215066 26.0173 1.91717 27.9448 4.28601 27.9448H20.6263C20.4795 28.2827 20.3138 28.6264 20.1072 28.9733C18.6166 31.4822 15.702 34.4018 6.3917 34.4018C0.80413 34.5278 0.80413 42.8744 6.3917 43C17.7735 43 24.4981 38.3837 27.4783 33.3693C29.827 29.4162 30.0064 25.5117 29.977 23.99C30.0157 17.4603 29.9938 10.8549 29.9938 4.29928C29.9935 1.92495 28.0748 0.000368499 25.7078 0L4.28601 0.000644871ZM8.57634 8.59884H21.4211V19.3424H8.57634V8.59884Z" fill="#B4B4B4"/>
<path d="M41.286 0.000644871C38.919 0.00100471 37.0004 1.92559 37 4.29993V23.6415C36.9978 26.0173 38.9172 27.9448 41.286 27.9448H57.6263C57.4795 28.2827 57.3138 28.6264 57.1072 28.9733C55.6166 31.4822 52.702 34.4018 43.3917 34.4018C37.8041 34.5278 37.8041 42.8744 43.3917 43C54.7735 43 61.4981 38.3837 64.4783 33.3693C66.827 29.4162 67.0064 25.5117 66.977 23.99C67.0157 17.4603 66.9938 10.8549 66.9938 4.29928C66.9935 1.92495 65.0748 0.000368499 62.7078 0L41.286 0.000644871ZM45.5763 8.59884H58.4211V19.3424H45.5763V8.59884Z" fill="#B4B4B4"/>
</svg>
