<svg width="124" height="43" viewBox="0 0 124 43" fill="none" xmlns="http://www.w3.org/2000/svg">
<path d="M57.8369 28.8672C57.8369 28.9603 57.8242 29.0576 57.7988 29.1592C57.7819 29.2607 57.7354 29.3454 57.6592 29.4131C57.2783 29.7008 56.8636 29.9674 56.415 30.2129C55.9749 30.4499 55.4967 30.6572 54.9805 30.835C54.4642 31.0127 53.9056 31.1481 53.3047 31.2412C52.7122 31.3428 52.0732 31.3936 51.3877 31.3936C49.8473 31.3936 48.4424 31.1693 47.1729 30.7207C45.9033 30.2637 44.8115 29.6204 43.8975 28.791C42.9919 27.9616 42.2894 26.9671 41.79 25.8076C41.2907 24.6396 41.041 23.3447 41.041 21.9229C41.041 21.1188 41.1426 20.3275 41.3457 19.5488C41.5573 18.7702 41.862 18.0296 42.2598 17.3271C42.6576 16.6247 43.1484 15.9814 43.7324 15.3975C44.3164 14.805 44.9808 14.293 45.7256 13.8613C46.4788 13.4297 47.304 13.0954 48.2012 12.8584C49.1068 12.613 50.0843 12.4902 51.1338 12.4902C51.54 12.4902 51.9548 12.5114 52.3779 12.5537C52.8011 12.5876 53.2201 12.6426 53.6348 12.7188C54.0495 12.7865 54.4473 12.8711 54.8281 12.9727C55.2174 13.0742 55.5856 13.1885 55.9326 13.3154L56.7959 15.6641L56.6943 15.7148C56.3643 15.4186 55.9834 15.1436 55.5518 14.8896C55.1201 14.6357 54.6589 14.4157 54.168 14.2295C53.6771 14.0433 53.1608 13.8994 52.6191 13.7979C52.0859 13.6878 51.5443 13.6328 50.9941 13.6328C49.9277 13.6328 48.9502 13.8021 48.0615 14.1406C47.1729 14.4707 46.4069 14.9531 45.7637 15.5879C45.1289 16.2227 44.6338 17.0013 44.2783 17.9238C43.9229 18.8464 43.7451 19.8958 43.7451 21.0723C43.7451 22.3672 43.9144 23.569 44.2529 24.6777C44.5915 25.7865 45.0951 26.7471 45.7637 27.5596C46.4323 28.3721 47.266 29.0111 48.2646 29.4766C49.2718 29.9336 50.444 30.1621 51.7812 30.1621C52.3737 30.1621 52.9027 30.1156 53.3682 30.0225C53.8337 29.9294 54.2272 29.8151 54.5488 29.6797C54.8704 29.5358 55.1117 29.3835 55.2725 29.2227C55.4417 29.0534 55.5264 28.901 55.5264 28.7656V28.2705C55.5264 27.6781 55.5179 27.166 55.501 26.7344C55.484 26.3027 55.4587 25.9303 55.4248 25.6172C55.391 25.2956 55.3529 25.0205 55.3105 24.792C55.2682 24.5635 55.2174 24.3519 55.1582 24.1572V24.1064H58.2051V24.1572C58.1543 24.335 58.1035 24.5465 58.0527 24.792C58.0104 25.029 57.9723 25.3125 57.9385 25.6426C57.9046 25.9727 57.8792 26.362 57.8623 26.8105C57.8454 27.2507 57.8369 27.7627 57.8369 28.3467V28.8672ZM66.9395 25.7695C66.9395 26.5312 66.9479 27.1956 66.9648 27.7627C66.9818 28.3298 67.0029 28.8206 67.0283 29.2354C67.0622 29.6416 67.1003 29.9844 67.1426 30.2637C67.1934 30.543 67.2484 30.7715 67.3076 30.9492V31H64.3623V30.9492C64.4215 30.7715 64.4723 30.543 64.5146 30.2637C64.5654 29.9844 64.6035 29.6416 64.6289 29.2354C64.6628 28.8206 64.6882 28.3298 64.7051 27.7627C64.722 27.1956 64.7305 26.5312 64.7305 25.7695V24.8936L60.1602 18.8633C59.8555 18.457 59.5635 18.1312 59.2842 17.8857C59.0049 17.6318 58.7933 17.471 58.6494 17.4033V17.3525H62.2549C62.2549 17.5049 62.3099 17.7419 62.4199 18.0635C62.5299 18.3766 62.7542 18.7617 63.0928 19.2188L66.3174 23.4844L69.6182 19.041C69.8551 18.7194 70.0329 18.402 70.1514 18.0889C70.2783 17.7757 70.3418 17.5303 70.3418 17.3525H72.665V17.4033C72.4535 17.5472 72.2334 17.7292 72.0049 17.9492C71.7848 18.1693 71.5267 18.4824 71.2305 18.8887L66.9395 24.7031V25.7695ZM72.9189 30.9492C73.029 30.8307 73.139 30.6149 73.249 30.3018C73.3675 29.9886 73.4606 29.6501 73.5283 29.2861C73.6299 28.6937 73.7399 28.0208 73.8584 27.2676C73.9854 26.5059 74.1081 25.723 74.2266 24.9189C74.3535 24.1149 74.4762 23.3151 74.5947 22.5195C74.7132 21.7155 74.8232 20.9707 74.9248 20.2852C75.0264 19.5996 75.111 18.9987 75.1787 18.4824C75.2464 17.9661 75.293 17.5895 75.3184 17.3525H76.8291L82.8848 28.1943L89.0928 17.3525H90.3242L91.8477 27.9531C91.9238 28.4355 91.9958 28.846 92.0635 29.1846C92.1396 29.5231 92.2116 29.8109 92.2793 30.0479C92.347 30.2764 92.4147 30.4626 92.4824 30.6064C92.5501 30.7503 92.6094 30.8646 92.6602 30.9492V31H89.5371V30.9492C89.5625 30.8815 89.5921 30.7673 89.626 30.6064C89.6683 30.4456 89.6895 30.2552 89.6895 30.0352C89.6895 29.8913 89.6768 29.6839 89.6514 29.4131C89.6344 29.1423 89.6048 28.8757 89.5625 28.6133L88.4707 20.8311L82.6943 30.9746L81.793 30.8477L76.1182 20.7549C75.9066 22.1768 75.7204 23.4928 75.5596 24.7031C75.4919 25.2194 75.4242 25.7357 75.3564 26.252C75.2887 26.7682 75.2295 27.2549 75.1787 27.7119C75.1279 28.1605 75.0856 28.5583 75.0518 28.9053C75.0179 29.2523 75.001 29.5104 75.001 29.6797C75.001 29.8913 75.0052 30.0775 75.0137 30.2383C75.0221 30.3906 75.0348 30.526 75.0518 30.6445C75.0687 30.7799 75.0856 30.8984 75.1025 31H72.9189V30.9492ZM103.654 26.709C103.426 26.709 103.138 26.709 102.791 26.709C102.452 26.709 102.08 26.709 101.674 26.709C101.268 26.709 100.849 26.709 100.417 26.709C99.9854 26.709 99.5749 26.7132 99.1855 26.7217C98.7962 26.7217 98.4408 26.7259 98.1191 26.7344C97.7975 26.7344 97.5479 26.7344 97.3701 26.7344L96.9004 27.7246C96.6973 28.1309 96.5238 28.4863 96.3799 28.791C96.236 29.0872 96.1175 29.3496 96.0244 29.5781C95.9313 29.8066 95.8636 30.0055 95.8213 30.1748C95.779 30.3356 95.7578 30.488 95.7578 30.6318C95.7578 30.7249 95.762 30.7969 95.7705 30.8477C95.779 30.89 95.7917 30.9238 95.8086 30.9492V31H93.5742V30.9492C93.6335 30.89 93.7266 30.763 93.8535 30.5684C93.9805 30.3652 94.1243 30.1198 94.2852 29.832C94.4544 29.5443 94.6322 29.2184 94.8184 28.8545C95.013 28.4906 95.2035 28.1139 95.3896 27.7246L100.569 17.0352H101.521L106.6 27.7246C106.794 28.1309 106.989 28.5202 107.184 28.8926C107.387 29.265 107.573 29.5993 107.742 29.8955C107.911 30.1833 108.06 30.4245 108.187 30.6191C108.313 30.8053 108.398 30.9154 108.44 30.9492V31H105.19C105.207 30.9323 105.216 30.873 105.216 30.8223C105.216 30.763 105.216 30.6995 105.216 30.6318C105.216 30.4456 105.174 30.2214 105.089 29.959C105.013 29.6966 104.915 29.43 104.797 29.1592C104.687 28.8799 104.568 28.6133 104.441 28.3594C104.323 28.1055 104.226 27.8939 104.149 27.7246L103.654 26.709ZM97.8652 25.7188H98.6396C98.9951 25.7188 99.3717 25.7188 99.7695 25.7188C100.176 25.7103 100.582 25.7061 100.988 25.7061C101.395 25.7061 101.788 25.7061 102.169 25.7061C102.55 25.6976 102.893 25.6934 103.197 25.6934L100.569 20.082L97.8652 25.7188ZM112.77 18.292C111.999 18.292 111.297 18.3258 110.662 18.3936C110.036 18.4613 109.494 18.5332 109.037 18.6094C108.512 18.7025 108.038 18.804 107.615 18.9141L107.869 17.2764C107.996 17.2933 108.203 17.306 108.491 17.3145C108.779 17.3229 109.079 17.3314 109.393 17.3398C109.714 17.3398 110.015 17.3441 110.294 17.3525C110.582 17.3525 110.781 17.3525 110.891 17.3525H116.896C116.997 17.3525 117.183 17.3525 117.454 17.3525C117.733 17.3441 118.03 17.3398 118.343 17.3398C118.656 17.3314 118.956 17.3229 119.244 17.3145C119.532 17.306 119.739 17.2933 119.866 17.2764L120.12 18.9141C119.714 18.804 119.248 18.7025 118.724 18.6094C118.275 18.5332 117.733 18.4613 117.099 18.3936C116.472 18.3258 115.766 18.292 114.979 18.292V25.7695C114.979 26.5312 114.987 27.1956 115.004 27.7627C115.021 28.3298 115.042 28.8206 115.067 29.2354C115.101 29.6416 115.139 29.9844 115.182 30.2637C115.224 30.543 115.275 30.7715 115.334 30.9492V31H112.401V30.9492C112.461 30.7715 112.511 30.543 112.554 30.2637C112.596 29.9844 112.634 29.6416 112.668 29.2354C112.702 28.8206 112.727 28.3298 112.744 27.7627C112.761 27.1956 112.77 26.5312 112.77 25.7695V18.292Z" fill="#484848"/>
<path d="M9.10884 22.1877L12.2123 25.2911C11.9867 25.4258 11.7295 25.4978 11.4668 25.4988C11.088 25.5007 10.7242 25.3509 10.4564 25.0832L9.31683 23.9435C9.08968 23.717 8.94538 23.4204 8.90763 23.1018C8.86987 22.7832 8.94088 22.4612 9.10884 22.1877ZM14.9925 16.2464L18.1529 19.4068L19.407 18.1526L16.2467 14.9923L14.9925 16.2464ZM25.0832 10.4562L23.9435 9.31655C23.717 9.0894 23.4204 8.9451 23.1018 8.90735C22.7832 8.86959 22.4613 8.94062 22.1878 9.10859L25.2912 12.212C25.4592 11.9385 25.5302 11.6166 25.4924 11.298C25.4547 10.9793 25.3103 10.6827 25.0832 10.4562ZM20.1532 9.10663C19.7498 8.70382 19.2033 8.47763 18.6332 8.47763C18.063 8.47763 17.5166 8.70382 17.1131 9.10663L16.2733 9.94648C15.8705 10.3499 15.6443 10.8964 15.6443 11.4665C15.6443 12.0367 15.8705 12.5831 16.2733 12.9866L21.4131 18.1264C21.8165 18.5289 22.3634 18.7551 22.9332 18.7551C23.503 18.7551 24.0498 18.5289 24.4532 18.1264L25.2931 17.2866C25.6959 16.8831 25.9221 16.3367 25.9221 15.7665C25.9221 15.1964 25.6959 14.6499 25.2931 14.2465L20.1532 9.10663ZM12.9866 16.2733C12.5832 15.8705 12.0367 15.6443 11.4665 15.6443C10.8964 15.6443 10.3499 15.8705 9.94648 16.2733L9.10663 17.1131C8.70382 17.5166 8.47763 18.063 8.47763 18.6332C8.47763 19.2033 8.70382 19.7498 9.10663 20.1532L14.2465 25.2931C14.6499 25.6956 15.1967 25.9218 15.7665 25.9218C16.3363 25.9218 16.8831 25.6956 17.2866 25.2931L18.1264 24.4532C18.5292 24.0498 18.7554 23.5033 18.7554 22.9332C18.7554 22.363 18.5292 21.8166 18.1264 21.4131L12.9866 16.2733ZM34.3997 17.1998C34.3997 30.3102 18.3112 42.3535 17.6257 42.8596C17.3726 43.0468 17.0271 43.0468 16.774 42.8596C16.0887 42.3535 0 30.311 0 17.1998C0 12.6381 1.81214 8.26318 5.03778 5.03778C8.26342 1.81214 12.6383 0 17.1998 0C21.7613 0 26.1364 1.81214 29.3618 5.03778C32.5874 8.26342 34.3997 12.6383 34.3997 17.1998ZM30.0997 17.1998C30.0997 13.7784 28.7406 10.4974 26.3216 8.07807C23.9022 5.65903 20.6212 4.2999 17.1999 4.2999C13.7785 4.2999 10.4975 5.65903 8.07816 8.07807C5.65911 10.4974 4.29998 13.7785 4.29998 17.1998C4.29998 20.6211 5.65911 23.9022 8.07816 26.3215C10.4975 28.7405 13.7785 30.0996 17.1999 30.0996C20.62 30.0958 23.8987 28.7354 26.3175 26.317C28.7362 23.8985 30.0959 20.6202 30.0997 17.1998Z" fill="#AE0F0F"/>
</svg>
