<svg width="124" height="43" viewBox="0 0 124 43" fill="none" xmlns="http://www.w3.org/2000/svg">
<path d="M57.8364 28.8672C57.8364 28.9603 57.8237 29.0576 57.7983 29.1592C57.7814 29.2607 57.7349 29.3454 57.6587 29.4131C57.2778 29.7008 56.8631 29.9674 56.4146 30.2129C55.9744 30.4499 55.4963 30.6572 54.98 30.835C54.4637 31.0127 53.9051 31.1481 53.3042 31.2412C52.7118 31.3428 52.0728 31.3936 51.3872 31.3936C49.8468 31.3936 48.4419 31.1693 47.1724 30.7207C45.9028 30.2637 44.811 29.6204 43.897 28.791C42.9914 27.9616 42.2889 26.9671 41.7896 25.8076C41.2902 24.6396 41.0405 23.3447 41.0405 21.9229C41.0405 21.1188 41.1421 20.3275 41.3452 19.5488C41.5568 18.7702 41.8615 18.0296 42.2593 17.3271C42.6571 16.6247 43.1479 15.9814 43.7319 15.3975C44.3159 14.805 44.9803 14.293 45.7251 13.8613C46.4784 13.4297 47.3035 13.0954 48.2007 12.8584C49.1063 12.613 50.0838 12.4902 51.1333 12.4902C51.5396 12.4902 51.9543 12.5114 52.3774 12.5537C52.8006 12.5876 53.2196 12.6426 53.6343 12.7188C54.049 12.7865 54.4468 12.8711 54.8276 12.9727C55.217 13.0742 55.5851 13.1885 55.9321 13.3154L56.7954 15.6641L56.6938 15.7148C56.3638 15.4186 55.9829 15.1436 55.5513 14.8896C55.1196 14.6357 54.6584 14.4157 54.1675 14.2295C53.6766 14.0433 53.1603 13.8994 52.6187 13.7979C52.0854 13.6878 51.5438 13.6328 50.9937 13.6328C49.9272 13.6328 48.9497 13.8021 48.061 14.1406C47.1724 14.4707 46.4064 14.9531 45.7632 15.5879C45.1284 16.2227 44.6333 17.0013 44.2778 17.9238C43.9224 18.8464 43.7446 19.8958 43.7446 21.0723C43.7446 22.3672 43.9139 23.569 44.2524 24.6777C44.591 25.7865 45.0946 26.7471 45.7632 27.5596C46.4318 28.3721 47.2655 29.0111 48.2642 29.4766C49.2713 29.9336 50.4435 30.1621 51.7808 30.1621C52.3732 30.1621 52.9022 30.1156 53.3677 30.0225C53.8332 29.9294 54.2267 29.8151 54.5483 29.6797C54.87 29.5358 55.1112 29.3835 55.272 29.2227C55.4412 29.0534 55.5259 28.901 55.5259 28.7656V28.2705C55.5259 27.6781 55.5174 27.166 55.5005 26.7344C55.4836 26.3027 55.4582 25.9303 55.4243 25.6172C55.3905 25.2956 55.3524 25.0205 55.3101 24.792C55.2677 24.5635 55.217 24.3519 55.1577 24.1572V24.1064H58.2046V24.1572C58.1538 24.335 58.103 24.5465 58.0522 24.792C58.0099 25.029 57.9718 25.3125 57.938 25.6426C57.9041 25.9727 57.8787 26.362 57.8618 26.8105C57.8449 27.2507 57.8364 27.7627 57.8364 28.3467V28.8672ZM66.939 25.7695C66.939 26.5312 66.9474 27.1956 66.9644 27.7627C66.9813 28.3298 67.0024 28.8206 67.0278 29.2354C67.0617 29.6416 67.0998 29.9844 67.1421 30.2637C67.1929 30.543 67.2479 30.7715 67.3071 30.9492V31H64.3618V30.9492C64.4211 30.7715 64.4718 30.543 64.5142 30.2637C64.5649 29.9844 64.603 29.6416 64.6284 29.2354C64.6623 28.8206 64.6877 28.3298 64.7046 27.7627C64.7215 27.1956 64.73 26.5312 64.73 25.7695V24.8936L60.1597 18.8633C59.855 18.457 59.563 18.1312 59.2837 17.8857C59.0044 17.6318 58.7928 17.471 58.6489 17.4033V17.3525H62.2544C62.2544 17.5049 62.3094 17.7419 62.4194 18.0635C62.5295 18.3766 62.7537 18.7617 63.0923 19.2188L66.3169 23.4844L69.6177 19.041C69.8547 18.7194 70.0324 18.402 70.1509 18.0889C70.2778 17.7757 70.3413 17.5303 70.3413 17.3525H72.6646V17.4033C72.453 17.5472 72.2329 17.7292 72.0044 17.9492C71.7843 18.1693 71.5262 18.4824 71.23 18.8887L66.939 24.7031V25.7695ZM72.9185 30.9492C73.0285 30.8307 73.1385 30.6149 73.2485 30.3018C73.367 29.9886 73.4601 29.6501 73.5278 29.2861C73.6294 28.6937 73.7394 28.0208 73.8579 27.2676C73.9849 26.5059 74.1076 25.723 74.2261 24.9189C74.353 24.1149 74.4757 23.3151 74.5942 22.5195C74.7127 21.7155 74.8228 20.9707 74.9243 20.2852C75.0259 19.5996 75.1105 18.9987 75.1782 18.4824C75.2459 17.9661 75.2925 17.5895 75.3179 17.3525H76.8286L82.8843 28.1943L89.0923 17.3525H90.3237L91.8472 27.9531C91.9233 28.4355 91.9953 28.846 92.063 29.1846C92.1392 29.5231 92.2111 29.8109 92.2788 30.0479C92.3465 30.2764 92.4142 30.4626 92.4819 30.6064C92.5496 30.7503 92.6089 30.8646 92.6597 30.9492V31H89.5366V30.9492C89.562 30.8815 89.5916 30.7673 89.6255 30.6064C89.6678 30.4456 89.689 30.2552 89.689 30.0352C89.689 29.8913 89.6763 29.6839 89.6509 29.4131C89.634 29.1423 89.6043 28.8757 89.562 28.6133L88.4702 20.8311L82.6938 30.9746L81.7925 30.8477L76.1177 20.7549C75.9061 22.1768 75.7199 23.4928 75.5591 24.7031C75.4914 25.2194 75.4237 25.7357 75.356 26.252C75.2882 26.7682 75.229 27.2549 75.1782 27.7119C75.1274 28.1605 75.0851 28.5583 75.0513 28.9053C75.0174 29.2523 75.0005 29.5104 75.0005 29.6797C75.0005 29.8913 75.0047 30.0775 75.0132 30.2383C75.0216 30.3906 75.0343 30.526 75.0513 30.6445C75.0682 30.7799 75.0851 30.8984 75.1021 31H72.9185V30.9492ZM103.654 26.709C103.425 26.709 103.138 26.709 102.791 26.709C102.452 26.709 102.08 26.709 101.673 26.709C101.267 26.709 100.848 26.709 100.417 26.709C99.9849 26.709 99.5744 26.7132 99.1851 26.7217C98.7957 26.7217 98.4403 26.7259 98.1187 26.7344C97.797 26.7344 97.5474 26.7344 97.3696 26.7344L96.8999 27.7246C96.6968 28.1309 96.5233 28.4863 96.3794 28.791C96.2355 29.0872 96.117 29.3496 96.0239 29.5781C95.9308 29.8066 95.8631 30.0055 95.8208 30.1748C95.7785 30.3356 95.7573 30.488 95.7573 30.6318C95.7573 30.7249 95.7616 30.7969 95.77 30.8477C95.7785 30.89 95.7912 30.9238 95.8081 30.9492V31H93.5737V30.9492C93.633 30.89 93.7261 30.763 93.853 30.5684C93.98 30.3652 94.1239 30.1198 94.2847 29.832C94.4539 29.5443 94.6317 29.2184 94.8179 28.8545C95.0125 28.4906 95.203 28.1139 95.3892 27.7246L100.569 17.0352H101.521L106.599 27.7246C106.794 28.1309 106.988 28.5202 107.183 28.8926C107.386 29.265 107.572 29.5993 107.742 29.8955C107.911 30.1833 108.059 30.4245 108.186 30.6191C108.313 30.8053 108.398 30.9154 108.44 30.9492V31H105.19C105.207 30.9323 105.215 30.873 105.215 30.8223C105.215 30.763 105.215 30.6995 105.215 30.6318C105.215 30.4456 105.173 30.2214 105.088 29.959C105.012 29.6966 104.915 29.43 104.796 29.1592C104.686 28.8799 104.568 28.6133 104.441 28.3594C104.322 28.1055 104.225 27.8939 104.149 27.7246L103.654 26.709ZM97.8647 25.7188H98.6392C98.9946 25.7188 99.3713 25.7188 99.769 25.7188C100.175 25.7103 100.582 25.7061 100.988 25.7061C101.394 25.7061 101.788 25.7061 102.168 25.7061C102.549 25.6976 102.892 25.6934 103.197 25.6934L100.569 20.082L97.8647 25.7188ZM112.769 18.292C111.999 18.292 111.296 18.3258 110.662 18.3936C110.035 18.4613 109.494 18.5332 109.037 18.6094C108.512 18.7025 108.038 18.804 107.615 18.9141L107.869 17.2764C107.996 17.2933 108.203 17.306 108.491 17.3145C108.778 17.3229 109.079 17.3314 109.392 17.3398C109.714 17.3398 110.014 17.3441 110.293 17.3525C110.581 17.3525 110.78 17.3525 110.89 17.3525H116.895C116.997 17.3525 117.183 17.3525 117.454 17.3525C117.733 17.3441 118.029 17.3398 118.342 17.3398C118.655 17.3314 118.956 17.3229 119.244 17.3145C119.531 17.306 119.739 17.2933 119.866 17.2764L120.12 18.9141C119.713 18.804 119.248 18.7025 118.723 18.6094C118.275 18.5332 117.733 18.4613 117.098 18.3936C116.472 18.3258 115.765 18.292 114.978 18.292V25.7695C114.978 26.5312 114.986 27.1956 115.003 27.7627C115.02 28.3298 115.042 28.8206 115.067 29.2354C115.101 29.6416 115.139 29.9844 115.181 30.2637C115.223 30.543 115.274 30.7715 115.333 30.9492V31H112.401V30.9492C112.46 30.7715 112.511 30.543 112.553 30.2637C112.596 29.9844 112.634 29.6416 112.667 29.2354C112.701 28.8206 112.727 28.3298 112.744 27.7627C112.761 27.1956 112.769 26.5312 112.769 25.7695V18.292Z" fill="white"/>
<path d="M9.10835 22.1877L12.2118 25.2911C11.9862 25.4258 11.729 25.4978 11.4663 25.4988C11.0875 25.5007 10.7238 25.3509 10.456 25.0832L9.31634 23.9435C9.08919 23.717 8.94489 23.4204 8.90714 23.1018C8.86939 22.7832 8.94039 22.4612 9.10835 22.1877ZM14.992 16.2464L18.1524 19.4068L19.4065 18.1526L16.2462 14.9923L14.992 16.2464ZM25.0827 10.4562L23.9431 9.31655C23.7165 9.0894 23.42 8.9451 23.1013 8.90735C22.7827 8.86959 22.4608 8.94062 22.1873 9.10859L25.2907 12.212C25.4587 11.9385 25.5297 11.6166 25.492 11.298C25.4542 10.9793 25.3098 10.6827 25.0827 10.4562ZM20.1528 9.10663C19.7493 8.70382 19.2028 8.47763 18.6327 8.47763C18.0626 8.47763 17.5161 8.70382 17.1126 9.10663L16.2728 9.94648C15.87 10.3499 15.6438 10.8964 15.6438 11.4665C15.6438 12.0367 15.87 12.5831 16.2728 12.9866L21.4126 18.1264C21.8161 18.5289 22.3629 18.7551 22.9327 18.7551C23.5025 18.7551 24.0493 18.5289 24.4527 18.1264L25.2926 17.2866C25.6954 16.8831 25.9216 16.3367 25.9216 15.7665C25.9216 15.1964 25.6954 14.6499 25.2926 14.2465L20.1528 9.10663ZM12.9861 16.2733C12.5827 15.8705 12.0362 15.6443 11.4661 15.6443C10.8959 15.6443 10.3495 15.8705 9.94599 16.2733L9.10614 17.1131C8.70334 17.5166 8.47714 18.063 8.47714 18.6332C8.47714 19.2033 8.70334 19.7498 9.10614 20.1532L14.246 25.2931C14.6494 25.6956 15.1962 25.9218 15.766 25.9218C16.3358 25.9218 16.8826 25.6956 17.2861 25.2931L18.126 24.4532C18.5288 24.0498 18.755 23.5033 18.755 22.9332C18.755 22.363 18.5288 21.8166 18.126 21.4131L12.9861 16.2733ZM34.3992 17.1998C34.3992 30.3102 18.3107 42.3535 17.6252 42.8596C17.3721 43.0468 17.0266 43.0468 16.7735 42.8596C16.0882 42.3535 -0.000488281 30.311 -0.000488281 17.1998C-0.000488281 12.6381 1.81165 8.26318 5.03729 5.03778C8.26294 1.81214 12.6378 0 17.1993 0C21.7608 0 26.1359 1.81214 29.3613 5.03778C32.5869 8.26342 34.3992 12.6383 34.3992 17.1998ZM30.0992 17.1998C30.0992 13.7784 28.7401 10.4974 26.3211 8.07807C23.9017 5.65903 20.6207 4.2999 17.1994 4.2999C13.7781 4.2999 10.497 5.65903 8.07767 8.07807C5.65862 10.4974 4.2995 13.7785 4.2995 17.1998C4.2995 20.6211 5.65862 23.9022 8.07767 26.3215C10.497 28.7405 13.7781 30.0996 17.1994 30.0996C20.6195 30.0958 23.8983 28.7354 26.317 26.317C28.7357 23.8985 30.0954 20.6202 30.0992 17.1998Z" fill="#AE0F0F"/>
</svg>
